<?xml version="1.0" standalone="no"?><!DOCTYPE svg PUBLIC "-//W3C//DTD SVG 1.1//EN" "http://www.w3.org/Graphics/SVG/1.1/DTD/svg11.dtd"><svg t="1772617553085" class="icon" viewBox="0 0 1024 1024" version="1.1" xmlns="http://www.w3.org/2000/svg" p-id="1988" xmlns:xlink="http://www.w3.org/1999/xlink" width="200" height="200"><path d="M510.1568 972.8a170.24 170.24 0 0 1-86.0672-23.296l-250.88-146.8928a170.8032 170.8032 0 0 1-84.1216-147.968l1.8432-290.6112a170.7008 170.7008 0 0 1 86.0672-146.944l252.6208-143.7184a170.7008 170.7008 0 0 1 170.2912 1.0752l250.88 146.8928a170.9056 170.9056 0 0 1 84.1216 148.0192l-1.8432 290.6112a170.8032 170.8032 0 0 1-86.0672 146.944l-252.6208 143.7184A170.0352 170.0352 0 0 1 510.1568 972.8z m3.6864-860.16a108.9536 108.9536 0 0 0-53.8624 14.2336L207.4112 270.4896a109.1584 109.1584 0 0 0-55.04 93.9008l-1.8432 290.6624a109.1072 109.1072 0 0 0 53.8624 94.6176l250.88 146.8928a109.1584 109.1584 0 0 0 108.9024 0.6656l252.5696-143.7184a109.1584 109.1584 0 0 0 55.04-93.9008l1.8432-290.6624a109.1072 109.1072 0 0 0-53.8624-94.6176l-250.88-146.8928A108.8 108.8 0 0 0 513.8432 112.64z" fill="#13227a" p-id="1989"></path><path d="M712.5504 384.6144a30.72 30.72 0 0 0-42.3936-9.4208L512 475.5968 353.8432 375.1936a30.72 30.72 0 1 0-32.9216 51.8656L481.28 528.896v186.6752a30.72 30.72 0 0 0 61.44 0V528.896l160.3584-101.8368a30.72 30.72 0 0 0 9.472-42.4448z" fill="#13227a" p-id="1990"></path></svg>