<?xml version="1.0" standalone="no"?><!DOCTYPE svg PUBLIC "-//W3C//DTD SVG 1.1//EN" "http://www.w3.org/Graphics/SVG/1.1/DTD/svg11.dtd"><svg t="1772638991258" class="icon" viewBox="0 0 1024 1024" version="1.1" xmlns="http://www.w3.org/2000/svg" p-id="2074" xmlns:xlink="http://www.w3.org/1999/xlink" width="200" height="200"><path d="M693.717333 160.789333a64 64 0 0 1 64 64v63.082667l192.021334 0.021333v128a106.666667 106.666667 0 0 1-106.666667 106.666667h-85.354667v43.562667a192 192 0 0 1-192 192h-298.666666a192 192 0 0 1-192-192v-341.333334a64 64 0 0 1 64-64h554.666666z m0 42.666667h-554.666666a21.333333 21.333333 0 0 0-21.333334 21.333333v341.333334a149.333333 149.333333 0 0 0 149.333334 149.333333h298.666666a149.333333 149.333333 0 0 0 149.333334-149.333333v-341.333334a21.333333 21.333333 0 0 0-21.333334-21.333333z m213.354667 127.104h-149.333333v149.333333h85.333333a64 64 0 0 0 64-64v-85.333333zM64.042667 885.802667h704v-42.666667h-704v42.666667z" p-id="2075" fill="#f4ea2a"></path></svg>