<?xml version="1.0" standalone="no"?><!DOCTYPE svg PUBLIC "-//W3C//DTD SVG 1.1//EN" "http://www.w3.org/Graphics/SVG/1.1/DTD/svg11.dtd"><svg t="1772617539221" class="icon" viewBox="0 0 1024 1024" version="1.1" xmlns="http://www.w3.org/2000/svg" p-id="1682" xmlns:xlink="http://www.w3.org/1999/xlink" width="200" height="200"><path d="M761.1904 135.5264h-73.1648v-42.4448a30.72 30.72 0 0 0-61.44 0v42.4448h-229.376v-42.4448a30.72 30.72 0 1 0-61.44 0v42.4448H259.584a174.08 174.08 0 0 0-174.08 174.08v454.144a174.08 174.08 0 0 0 174.08 174.08h501.76a174.08 174.08 0 0 0 174.08-174.08v-454.144a174.08 174.08 0 0 0-174.2336-174.08z m112.64 628.224a112.64 112.64 0 0 1-112.64 112.64h-501.76a112.64 112.64 0 0 1-112.64-112.64v-454.144a112.64 112.64 0 0 1 112.64-112.64h76.3392v66.56a30.72 30.72 0 0 0 61.44 0v-66.56h229.376v66.56a30.72 30.72 0 1 0 61.44 0v-66.56h73.1648a112.64 112.64 0 0 1 112.64 112.64z" fill="#1afa29" p-id="1683"></path><path d="M705.3312 513.5872H323.9424a30.72 30.72 0 0 1 0-61.44h381.3888a30.72 30.72 0 0 1 0 61.44zM615.1168 711.1168H323.9424a30.72 30.72 0 0 1 0-61.44h291.1744a30.72 30.72 0 1 1 0 61.44z" fill="#1afa29" p-id="1684"></path></svg>