<?xml version="1.0" standalone="no"?><!DOCTYPE svg PUBLIC "-//W3C//DTD SVG 1.1//EN" "http://www.w3.org/Graphics/SVG/1.1/DTD/svg11.dtd"><svg t="1772618046768" class="icon" viewBox="0 0 1024 1024" version="1.1" xmlns="http://www.w3.org/2000/svg" p-id="6750" xmlns:xlink="http://www.w3.org/1999/xlink" width="200" height="200"><path d="M926.496 370.208l44.864-84.16c-111.008-83.52-207.296 116.224-224.608 180.384-17.312 64.16-44.8 61.6-44.8 61.6-46.528-7.488-117.312-97.504-190.432-185.344L225.888 17.856S180.064-12.192 149.504 5.632c-30.56 17.856-15.264 64.16-15.264 64.16 5.76 7.84 259.872 343.04 250.528 345.728-14.08 4.032-23.712-14.112-121.024-129.504l-58.976 106.08-132.128 266.976c64.384 108.544 136.928 198.656 202.56 265.248C338.688 988.8 426.08 1024 516.544 1024a341.76 341.76 0 0 0 333.664-266.528c13.6-60.48 26.912-147.776 37.568-281.344l38.72-105.92z" fill="#F4C534" p-id="6751"></path><path d="M72.608 659.104s59.744 40.384 81.12 51.936c21.376 11.552 52.608 5.76 63.488-10.176 10.848-15.968 19.008-43.104-4.064-69.248 0 0 31.232 21.376 65.504 14.592 34.272-6.784 43.776-51.584 38.368-66.208-5.44-14.592-68.896-84.192-97.088-106.944 0 0 50.24 36.672 66.528 42.08 16.288 5.44 48.192-1.344 61.088-27.84 12.896-26.464 11.872-52.288 0-68.224-11.872-15.968-57.376-55.68-57.376-55.68s-6.752-57.664-26.464-77.344c-19.68-19.68-63.136-18.656-82.816 0s-45.152 58.4-29.536 103.52c15.616 45.152 12.576 35.296 12.576 35.296s-41.76-25.472-65.184-9.152c-23.424 16.288-46.176 54.656-31.232 86.88 14.944 32.256 29.184 45.472 29.184 45.472s-32.576 26.816-42.08 62.112c-9.504 35.328 17.984 48.928 17.984 48.928z" fill="#E9B02C" p-id="6752"></path><path d="M245.472 457.792s11.712-43.264 40.992-48.384c0 0 40.64 9.952 54.976 31.328 14.368 21.344-16.288 71.296-51.424 62.112 0.032 0-37.92-19.84-44.544-45.056zM262.848 634.048c28.352-4.096 43.36-20.928 43.392-52.064a11.424 11.424 0 0 0-2.592-7.2c-6.432-7.68-24.288-26.784-44.32-28.416-25.12-2.048-49.216 26.144-39.392 48.192 8.16 18.272 22.816 31.2 32.448 37.216a15.264 15.264 0 0 0 10.464 2.272zM143.904 672.672s15.264 21.12 30.816 23.68c15.52 2.56 40.992-16.8 39.456-33.6-1.536-16.8-35.104-30.56-35.104-30.56s-26.88 12.864-35.168 40.48z" fill="#E9EFF4" p-id="6753"></path><path d="M213.152 631.584a425.088 425.088 0 0 1-116.416-83.52l116.416 83.52zM219.936 473.088s-37.184-26.048-56-48.192c0.736-0.48 10.208 25.216 56 48.192z" fill="#DE9C25" p-id="6754"></path></svg>
