<?xml version="1.0" standalone="no"?><!DOCTYPE svg PUBLIC "-//W3C//DTD SVG 1.1//EN" "http://www.w3.org/Graphics/SVG/1.1/DTD/svg11.dtd"><svg t="1772617863348" class="icon" viewBox="0 0 1024 1024" version="1.1" xmlns="http://www.w3.org/2000/svg" p-id="2346" data-spm-anchor-id="a313x.collections_detail.0.i6.382d3a81i2KnF6" xmlns:xlink="http://www.w3.org/1999/xlink" width="200" height="200"><path d="M632.9344 581.9392a30.72 30.72 0 0 0 47.4112-39.1168 206.9504 206.9504 0 0 0-65.1264-52.4288 135.7824 135.7824 0 1 0-189.44 0 207.1552 207.1552 0 0 0-112.64 184.32 30.72 30.72 0 0 0 61.44 0 145.5616 145.5616 0 0 1 257.9456-92.5696zM446.208 393.0624a74.3936 74.3936 0 1 1 74.3936 74.3936 74.4448 74.4448 0 0 1-74.3936-74.3936z" fill="#A46CF4" p-id="2347"></path><path d="M795.0336 579.2768a30.72 30.72 0 0 0-43.4176-1.3312l-113.8176 107.2128-46.08-48.9472a30.72 30.72 0 0 0-44.6976 42.1888L614.4 749.6192a30.72 30.72 0 0 0 43.4176 1.28l136.0896-128a30.72 30.72 0 0 0 1.1264-43.6224z" fill="#A46CF4" p-id="2348"></path><path d="M517.7856 983.04a471.04 471.04 0 1 1 471.04-471.04 471.3472 471.3472 0 0 1-471.04 471.04z m0-880.2304a409.6 409.6 0 1 0 409.6 409.6 409.856 409.856 0 0 0-409.6-410.0096z" fill="#d81e06" p-id="2349" data-spm-anchor-id="a313x.collections_detail.0.i7.382d3a81i2KnF6" class="selected"></path></svg>
