<?xml version="1.0" standalone="no"?><!DOCTYPE svg PUBLIC "-//W3C//DTD SVG 1.1//EN" "http://www.w3.org/Graphics/SVG/1.1/DTD/svg11.dtd"><svg t="1772617418519" class="icon" viewBox="0 0 1024 1024" version="1.1" xmlns="http://www.w3.org/2000/svg" p-id="1107" xmlns:xlink="http://www.w3.org/1999/xlink" width="200" height="200"><path d="M361.2672 481.8944H205.4144a117.76 117.76 0 0 1-117.76-117.76v-155.648a117.76 117.76 0 0 1 117.76-117.76h155.8528a117.76 117.76 0 0 1 117.76 117.76v155.8528a117.76 117.76 0 0 1-117.76 117.5552zM205.4144 152.3712a56.32 56.32 0 0 0-56.32 56.32v155.648a56.32 56.32 0 0 0 56.32 56.32h155.8528a56.32 56.32 0 0 0 56.32-56.32V208.4864a56.32 56.32 0 0 0-56.32-56.32zM818.5856 481.8944h-155.8528a117.76 117.76 0 0 1-117.76-117.76v-155.648a117.76 117.76 0 0 1 117.76-117.76h155.8528a117.76 117.76 0 0 1 117.76 117.76v155.8528a117.76 117.76 0 0 1-117.76 117.5552z m-155.8528-329.5232a56.32 56.32 0 0 0-56.32 56.32v155.648a56.32 56.32 0 0 0 56.32 56.32h155.8528a56.32 56.32 0 0 0 56.32-56.32V208.4864a56.32 56.32 0 0 0-56.32-56.32zM361.2672 941.4656H205.4144a117.76 117.76 0 0 1-117.76-117.76v-155.648a117.76 117.76 0 0 1 117.76-117.76h155.8528a117.76 117.76 0 0 1 117.76 117.76v155.8528a117.76 117.76 0 0 1-117.76 117.5552z m-155.8528-329.5232a56.32 56.32 0 0 0-56.32 56.32v155.8528a56.32 56.32 0 0 0 56.32 56.32h155.8528a56.32 56.32 0 0 0 56.32-56.32v-156.0576a56.32 56.32 0 0 0-56.32-56.32z" fill="#f4ea2a" p-id="1108"></path><path d="M818.5856 941.4656h-155.8528a117.76 117.76 0 0 1-117.76-117.76v-155.648a117.76 117.76 0 0 1 117.76-117.76h155.8528a117.76 117.76 0 0 1 117.76 117.76v155.8528a117.76 117.76 0 0 1-117.76 117.5552z m-155.8528-329.5232a56.32 56.32 0 0 0-56.32 56.32v155.8528a56.32 56.32 0 0 0 56.32 56.32h155.8528a56.32 56.32 0 0 0 56.32-56.32v-156.0576a56.32 56.32 0 0 0-56.32-56.32z" fill="#f4ea2a" p-id="1109"></path></svg>