<?xml version="1.0" standalone="no"?><!DOCTYPE svg PUBLIC "-//W3C//DTD SVG 1.1//EN" "http://www.w3.org/Graphics/SVG/1.1/DTD/svg11.dtd"><svg t="1772613910517" class="icon" viewBox="0 0 1024 1024" version="1.1" xmlns="http://www.w3.org/2000/svg" p-id="1419" xmlns:xlink="http://www.w3.org/1999/xlink" width="200" height="200"><path d="M512 980.736a471.04 471.04 0 1 1 471.04-471.04 471.3984 471.3984 0 0 1-471.04 471.04z m0-880.2304a409.6 409.6 0 1 0 409.6 409.6 409.856 409.856 0 0 0-409.6-409.6z" fill="#3D3A3A" p-id="1420"></path><path d="M380.2624 698.2656A56.9856 56.9856 0 0 1 327.68 620.5952l68.1984-174.7456a92.16 92.16 0 0 1 52.0704-52.0704l174.7968-68.3008A56.8832 56.8832 0 0 1 696.32 399.36l-68.1984 174.592a92.16 92.16 0 0 1-52.0704 52.0704L401.2544 694.272a56.9856 56.9856 0 0 1-20.992 3.9936z m255.0784-311.7568l-165.0688 64.512a30.4128 30.4128 0 0 0-17.152 17.152l-64.4608 165.0688 165.0688-64.4608a30.3104 30.3104 0 0 0 17.152-17.2032z" fill="#A46CF4" p-id="1421"></path></svg>
