<svg version="1.0" xmlns="http://www.w3.org/2000/svg" width="800.000000" height="800.000000" viewBox="0 0 800.000000 800.000000" preserveAspectRatio="xMidYMid meet">
  <metadata>
    <rdf:RDF xmlns:rdf="http://www.w3.org/1999/02/22-rdf-syntax-ns#" xmlns:rdfs="http://www.w3.org/2000/01/rdf-schema#" xmlns:dc="http://purl.org/dc/elements/1.1/">
      <rdf:Description dc:format="image/svg+xml" dc:Label="1" dc:ContentProducer="001191330110MACRLGPT8B00000" dc:ProduceID="453197996" dc:ReservedCode1="FTZGsypWT1c8p5Jfvwj2Hv7kJeazzZSdYialzdha1KI=" dc:ContentPropagator="001191330110MACRLGPT8B00000" dc:PropagateID="453197996" dc:ReservedCode2="FTZGsypWT1c8p5Jfvwj2Hv7kJeazzZSdYialzdha1KI="/>
    </rdf:RDF>
  </metadata>
  <g transform="translate(0.000000,800.000000) scale(0.100000,-0.100000)" fill="#000000" stroke="none">
    <path d="M3720 7284 c-205 -25 -422 -71 -570 -122 -806 -276 -1289 -864 -1437 -1747 -26 -157 -26 -582 0 -704 24 -112 31 -123 70 -119 32 3 32 3 69 132 20 71 39 133 41 139 2 6 16 -29 31 -78 38 -124 90 -218 161 -294 68 -73 169 -151 195 -151 13 0 19 -11 24 -47 49 -357 50 -367 50 -628 0 -253 -1 -265 -34 -440 -29 -154 -34 -203 -35 -343 l-1 -163 -37 -30 c-47 -38 -114 -133 -160 -224 -131 -263 -212 -692 -263 -1394 -17 -238 -17 -244 1 -257 23 -17 46 -18 68 -1 14 10 19 39 27 157 51 745 137 1212 271 1471 37 72 102 159 118 159 3 0 19 -35 35 -77 16 -43 46 -113 68 -157 120 -239 158 -359 158 -499 0 -91 -5 -121 -47 -267 -13 -46 -26 -116 -29 -155 -17 -202 97 -414 268 -500 82 -41 91 -42 118 -15 28 28 25 45 -15 81 -48 44 -85 122 -85 180 0 38 13 73 73 191 83 162 107 242 114 373 10 173 -22 333 -122 600 -64 172 -95 291 -95 364 0 92 22 102 260 112 165 8 268 19 338 36 21 5 22 3 22 -68 0 -292 137 -546 346 -646 77 -37 82 -38 189 -38 80 0 125 5 165 18 95 32 211 91 314 160 55 37 100 66 101 64 3 -6 78 -381 91 -457 34 -198 -19 -428 -134 -580 -45 -59 -51 -80 -26 -104 35 -36 93 -8 202 98 116 111 197 246 249 413 l28 88 -3 285 c-2 307 5 386 45 515 23 73 127 295 138 295 2 0 33 -15 67 -34 88 -48 138 -60 418 -106 135 -22 288 -52 340 -66 277 -74 414 -214 473 -479 19 -88 22 -130 22 -355 0 -335 -37 -625 -126 -999 -28 -116 -29 -125 -13 -142 23 -26 60 -24 78 4 17 25 54 180 90 377 87 471 103 887 46 1152 -29 136 -95 265 -179 349 -77 77 -148 119 -274 164 l-92 33 -27 113 c-37 153 -94 493 -112 670 -30 283 -38 586 -31 1169 9 725 -7 958 -85 1278 -153 626 -543 1026 -1153 1183 -190 49 -283 60 -527 64 -129 2 -251 1 -270 -1z m562 -118 c687 -108 1122 -492 1281 -1131 84 -335 99 -556 91 -1355 -7 -607 0 -840 31 -1130 23 -209 77 -521 121 -694 5 -23 5 -23 -56 -13 -46 8 -60 13 -56 24 3 8 -7 96 -24 196 -16 100 -35 224 -41 275 -7 53 -18 100 -26 108 -19 19 -57 18 -74 -2 -14 -18 -4 -119 44 -426 21 -135 22 -148 7 -148 -38 0 -250 42 -307 61 -44 14 -72 31 -96 59 l-35 38 55 129 c59 137 105 298 125 440 8 61 11 189 8 418 -6 408 -6 627 0 1150 5 463 -5 589 -67 859 -22 99 -72 137 -108 83 -13 -21 -13 -32 9 -118 59 -235 59 -238 62 -1294 2 -605 -1 -1006 -8 -1065 -23 -213 -90 -410 -226 -654 -92 -166 -142 -279 -174 -396 -22 -80 -23 -103 -24 -410 -1 -305 -2 -330 -23 -400 -21 -70 -99 -245 -107 -237 -2 2 2 21 8 43 21 68 15 334 -9 444 -88 391 -106 514 -107 695 0 171 10 238 79 525 69 287 91 418 109 638 32 380 58 1027 50 1237 -7 173 -16 198 -67 193 -31 -3 -33 -6 -68 -108 -39 -115 -77 -200 -89 -200 -4 0 -15 11 -24 25 -12 18 -13 30 -6 50 6 15 10 64 10 110 0 66 -4 87 -19 106 -16 20 -23 22 -47 14 -22 -8 -30 -18 -32 -41 l-3 -30 -53 25 -53 26 -7 90 c-9 111 -34 299 -46 343 l-9 33 32 -7 c62 -15 92 -11 95 13 3 19 -6 24 -65 43 l-68 22 -37 117 c-45 141 -116 267 -155 277 -58 15 -79 -35 -40 -95 38 -57 68 -119 93 -195 13 -38 24 -70 24 -71 0 -3 -205 7 -208 10 -2 1 -14 56 -27 121 -25 123 -65 267 -85 303 -12 24 -58 29 -78 9 -17 -17 -15 -38 13 -138 37 -127 74 -309 65 -315 -5 -3 -37 -14 -72 -25 -71 -22 -108 -44 -108 -66 0 -26 29 -27 110 -3 44 12 82 21 84 18 7 -6 26 -270 26 -351 0 -59 3 -69 22 -79 20 -11 17 -13 -42 -36 -82 -30 -103 -51 -151 -145 -57 -113 -65 -199 -19 -213 34 -11 56 11 73 75 42 148 218 228 409 186 83 -18 139 -50 208 -117 47 -46 120 -172 120 -207 0 -23 35 -52 61 -52 15 0 88 72 117 116 16 24 10 -325 -13 -711 -8 -137 -15 -265 -15 -283 0 -30 -7 -37 -97 -96 -287 -185 -834 -451 -954 -464 -58 -5 -121 15 -253 80 -55 27 -185 88 -290 135 -248 111 -278 126 -314 163 -48 47 -68 120 -102 356 -25 176 -68 411 -107 591 -5 21 -3 21 26 10 50 -18 63 3 65 105 2 122 41 178 125 178 41 0 45 -11 10 -32 -101 -61 -95 -308 10 -421 69 -74 165 -58 210 35 37 78 27 221 -21 290 -11 16 -15 29 -8 33 12 8 13 48 1 61 -5 5 -12 54 -16 109 l-7 100 45 -90 c75 -152 189 -283 263 -301 27 -7 64 18 64 43 0 8 -40 54 -89 101 -77 76 -95 100 -134 182 -53 111 -82 221 -99 370 -21 195 19 441 103 619 21 46 39 90 39 97 0 8 -11 21 -24 29 -37 25 -60 6 -105 -83 -76 -152 -121 -354 -121 -548 0 -72 -6 -124 -21 -180 -17 -60 -22 -110 -23 -207 -1 -109 -3 -126 -16 -121 -8 3 -29 8 -46 11 -23 4 -30 10 -27 22 2 9 -3 72 -12 141 -8 68 -15 166 -15 217 0 104 0 104 83 118 28 4 37 11 37 26 0 25 -36 39 -75 28 -16 -5 -32 -9 -36 -9 -3 0 -2 33 3 73 9 90 49 230 90 320 36 78 32 100 -20 105 -27 3 -34 -2 -55 -35 -57 -92 -113 -289 -123 -440 l-7 -92 -61 -63 c-73 -74 -102 -126 -82 -146 19 -19 37 -7 83 59 24 32 47 59 53 59 6 0 10 -27 10 -63 0 -67 25 -291 35 -307 3 -5 1 -11 -5 -15 -6 -4 -8 -10 -5 -15 3 -5 -6 -16 -19 -26 -25 -15 -86 -124 -86 -151 0 -30 -22 -9 -60 60 -105 189 -136 441 -80 651 l21 79 -20 21 c-17 16 -26 18 -48 10 -30 -10 -51 -64 -78 -199 -8 -38 -24 -110 -36 -160 -18 -74 -22 -122 -23 -265 -1 -106 4 -204 12 -250 14 -77 37 -176 49 -206 5 -14 3 -15 -16 -4 -29 15 -76 90 -103 163 -16 44 -26 59 -46 64 -74 18 -76 -57 -6 -197 27 -54 42 -92 33 -84 -23 21 -83 137 -103 199 -42 134 -55 317 -30 442 5 26 2 34 -19 47 -18 12 -31 14 -49 7 -21 -8 -27 -20 -37 -71 -14 -71 -79 -288 -93 -310 -15 -25 -1 373 17 490 74 469 270 879 562 1176 321 325 818 551 1328 603 125 13 460 5 577 -13z m-112 -1392 c13 -13 47 -221 59 -354 5 -58 8 -106 7 -107 0 -1 -26 5 -56 13 -37 11 -85 14 -146 11 l-91 -4 20 20 c19 19 20 29 13 186 -3 91 -9 186 -13 210 l-6 44 102 -5 c56 -3 106 -9 111 -14z m-1798 -849 c15 -31 40 -122 62 -233 21 -101 40 -190 43 -198 12 -32 -8 -10 -42 46 -76 125 -118 275 -130 470 l-6 95 24 -65 c13 -36 35 -87 49 -115z m492 -47 c21 -29 12 -38 -24 -25 -34 13 -49 4 -30 -18 13 -16 10 -18 -13 -9 -16 6 -12 38 6 62 15 19 44 14 61 -10z m35 -174 c15 9 14 -26 0 -58 -22 -48 -57 -44 -81 9 -13 30 -13 36 -1 46 11 10 15 8 20 -9 7 -30 21 -28 29 4 4 17 9 22 14 14 4 -7 13 -9 19 -6z m-415 -356 c19 -3 23 -20 53 -226 17 -123 39 -247 49 -275 22 -70 68 -140 109 -168 33 -23 34 -25 41 -119 11 -156 -2 -316 -42 -505 -24 -116 -37 -208 -41 -290 -7 -144 9 -218 93 -440 101 -268 136 -455 114 -613 -14 -104 -26 -137 -106 -298 -56 -111 -67 -141 -71 -198 l-6 -67 -19 28 c-34 51 -58 150 -58 237 0 60 8 108 30 185 57 199 59 350 4 518 -14 43 -61 152 -104 243 -91 191 -123 288 -140 420 -15 113 -9 194 32 430 40 229 49 533 24 771 -16 145 -49 372 -63 428 -5 22 -2 21 37 -17 24 -22 52 -42 64 -44z m2122 -755 c-14 -76 -46 -219 -70 -318 -24 -99 -52 -220 -61 -270 -21 -116 -29 -326 -18 -438 l9 -89 -40 -33 c-114 -92 -299 -190 -416 -220 -276 -71 -513 166 -537 536 l-6 95 49 1 c60 1 134 29 199 73 35 24 47 28 42 16 -16 -41 -19 -96 -7 -111 19 -23 57 -18 75 9 33 50 55 201 55 376 l0 165 128 58 c70 31 192 93 272 137 144 79 167 90 155 70 -7 -12 12 -40 26 -40 5 0 13 9 19 19 7 15 6 23 -5 34 -13 14 -5 21 68 66 82 51 82 51 85 27 2 -14 -8 -87 -22 -163z m-1683 -37 l74 -33 6 -59 c16 -137 19 -343 8 -434 -7 -52 -13 -95 -15 -97 -1 -1 -34 -3 -72 -4 -38 -1 -88 -7 -111 -14 -24 -7 -43 -12 -43 -11 0 2 14 68 31 147 27 124 32 172 36 342 3 108 7 197 9 197 1 0 36 -15 77 -34z m359 -167 c244 -116 305 -125 447 -69 l51 20 0 -72 c0 -56 -3 -69 -12 -60 -21 21 -50 15 -46 -9 4 -31 35 -49 48 -29 16 26 12 -8 -6 -46 -31 -65 -150 -154 -207 -154 -13 0 -32 9 -42 20 -24 26 -59 25 -137 -4 -59 -22 -168 -48 -168 -40 0 2 17 19 38 38 35 33 36 36 20 52 -16 16 -19 14 -65 -26 -26 -23 -48 -49 -48 -58 0 -10 -9 -18 -20 -20 -19 -3 -20 3 -20 225 0 125 -3 247 -8 271 -4 23 -4 42 -1 42 4 0 83 -36 176 -81z"/>
    <path d="M4387 6092 c-10 -10 -17 -22 -17 -26 0 -3 20 -41 45 -84 74 -128 121 -299 141 -510 7 -79 23 -99 70 -88 34 9 38 41 25 164 -15 128 -41 242 -82 349 -70 181 -133 249 -182 195z"/>
    <path d="M3502 5828 c-16 -21 -71 -190 -93 -290 -30 -135 -37 -374 -14 -492 20 -111 28 -126 64 -126 51 0 55 17 36 146 -19 123 -17 324 4 374 5 14 10 19 10 11 3 -65 46 -311 57 -328 9 -14 24 -23 39 -23 44 0 55 33 40 120 -18 104 -43 333 -51 465 -4 67 -12 119 -20 133 -16 24 -55 30 -72 10z"/>
    <path d="M4106 5175 c-146 -52 -203 -283 -99 -404 70 -82 154 -101 243 -56 174 88 173 369 -3 454 -50 24 -86 26 -141 6z m99 -99 c49 -21 83 -94 77 -169 -2 -17 -3 -17 -28 0 l-26 17 22 8 c17 6 20 11 11 22 -6 7 -8 16 -4 20 4 4 -3 9 -16 13 -17 4 -19 8 -9 14 10 7 10 11 -3 25 -13 12 -21 14 -37 5 -18 -10 -21 -8 -24 14 -4 35 -22 35 -29 -1 -3 -19 -10 -28 -20 -25 -8 2 -20 4 -26 4 -7 0 -13 3 -13 7 0 9 42 46 60 53 23 8 28 8 65 -7z m-125 -91 c10 -12 10 -15 -4 -15 -9 0 -16 7 -16 15 0 8 2 15 4 15 2 0 9 -7 16 -15z m0 -45 c12 -8 12 -10 -3 -16 -17 -6 -23 -35 -10 -47 3 -4 17 0 30 9 24 15 24 15 13 -6 -9 -17 -9 -25 0 -34 9 -8 17 -4 36 17 22 26 24 26 24 8 0 -12 7 -21 15 -21 9 0 15 9 15 22 0 20 1 21 20 3 16 -15 22 -15 35 -5 24 20 18 -5 -11 -39 -69 -82 -194 -26 -194 88 0 33 6 37 30 21z"/>
    <path d="M4307 4704 c-3 -3 -1 -19 5 -35 11 -32 44 -40 55 -14 10 27 -40 68 -60 49z"/>
    <path d="M4183 4673 c-7 -2 -13 -13 -13 -24 0 -14 7 -19 28 -19 15 0 33 -5 38 -10 17 -17 45 0 42 24 -2 15 -10 21 -30 21 -15 1 -30 4 -34 8 -8 8 -13 8 -31 0z"/>
    <path d="M3985 4650 c-7 -23 1 -40 20 -40 13 0 25 21 25 46 0 22 -38 17 -45 -6z"/>
    <path d="M4059 4644 c-11 -14 -9 -19 11 -35 14 -10 30 -17 35 -15 15 4 18 35 5 51 -16 19 -34 19 -51 -1z"/>
    <path d="M2974 4525 c-4 -9 0 -23 9 -32 21 -21 49 -9 45 19 -4 28 -45 38 -54 13z"/>
    <path d="M2897 4504 c-10 -11 -9 -42 3 -49 20 -12 51 6 48 28 -3 22 -36 35 -51 21z"/>
    <path d="M2724 4476 c-9 -24 0 -61 17 -64 21 -4 40 39 27 61 -11 21 -37 22 -44 3z"/>
    <path d="M2821 4477 c-6 -6 -11 -19 -11 -30 0 -27 44 -19 48 9 3 25 -20 38 -37 21z"/>
    <path d="M3177 4392 c-38 -42 -2 -96 49 -73 17 7 24 19 24 39 0 50 -41 69 -73 34z"/>
    <path d="M3371 3831 c-63 -63 81 -119 184 -72 54 24 70 44 55 70 -13 24 -38 26 -101 7 -38 -12 -50 -12 -78 0 -41 17 -37 18 -60 -5z"/>
    <path d="M4506 3595 c-20 -21 -21 -44 -1 -51 21 -8 47 15 43 39 -4 27 -22 32 -42 12z"/>
    <path d="M4362 3558 c-16 -16 3 -48 29 -48 28 0 37 30 14 46 -23 17 -28 17 -43 2z"/>
    <path d="M4273 3514 c-8 -20 9 -49 28 -49 19 0 24 45 7 56 -19 13 -28 11 -35 -7z"/>
    <path d="M4444 3475 c-10 -25 4 -47 28 -43 28 4 33 21 13 42 -20 20 -34 20 -41 1z"/>
    <path d="M4126 3464 c-19 -19 -20 -26 -4 -42 16 -16 23 -15 42 4 12 12 13 20 6 35 -13 23 -24 24 -44 3z"/>
    <path d="M4357 3433 c-22 -21 16 -59 47 -47 21 8 21 40 0 48 -20 8 -39 8 -47 -1z"/>
    <path d="M4200 3410 c0 -12 10 -25 25 -32 34 -15 50 0 29 30 -20 28 -54 29 -54 2z"/>
    <path d="M4021 3391 c-17 -11 -8 -39 15 -48 9 -3 24 3 37 16 19 19 20 23 7 31 -19 12 -41 12 -59 1z"/>
    <path d="M3906 3374 c-9 -8 -16 -17 -16 -19 0 -9 33 -35 45 -35 18 0 27 28 15 51 -13 23 -24 24 -44 3z"/>
    <path d="M4274 3355 c-4 -9 -2 -21 4 -27 16 -16 47 -5 47 17 0 26 -42 34 -51 10z"/>
    <path d="M4185 3330 c-9 -14 13 -50 31 -50 8 0 17 7 20 15 11 29 -35 61 -51 35z"/>
    <path d="M4104 3305 c-9 -23 3 -45 25 -45 20 0 37 32 26 50 -9 15 -45 12 -51 -5z"/>
    <path d="M3996 3264 c-8 -20 20 -54 44 -54 10 0 23 7 30 15 10 12 6 18 -22 35 -40 24 -44 25 -52 4z"/>
    <path d="M3918 3248 c-6 -16 8 -58 20 -58 4 0 17 6 28 14 15 12 17 18 8 33 -13 22 -50 29 -56 11z"/>
    <path d="M3210 3365 c-16 -19 -9 -49 12 -53 23 -4 43 35 27 54 -15 18 -23 18 -39 -1z"/>
    <path d="M3370 3292 c0 -21 18 -42 36 -42 21 0 26 34 8 47 -25 18 -44 16 -44 -5z"/>
    <path d="M3677 3283 c-4 -3 -7 -15 -7 -25 0 -12 7 -18 24 -18 26 0 51 24 41 40 -7 11 -48 14 -58 3z"/>
    <path d="M3238 3259 c-27 -15 -23 -49 6 -49 33 0 53 25 36 45 -15 17 -19 18 -42 4z"/>
    <path d="M3430 3245 c-12 -15 -5 -55 10 -55 5 0 16 7 24 16 12 12 13 20 6 35 -13 23 -23 24 -40 4z"/>
    <path d="M3537 3244 c-13 -13 -7 -42 10 -48 21 -8 36 6 31 30 -3 19 -29 30 -41 18z"/>
    <path d="M3626 3193 c-6 -14 8 -33 24 -33 16 0 32 20 27 34 -8 21 -43 21 -51 -1z"/>
    <path d="M3321 3186 c-15 -18 -3 -46 20 -46 25 0 35 26 19 45 -15 19 -24 19 -39 1z"/>
    <path d="M3487 3154 c-11 -11 13 -44 32 -44 20 0 31 17 24 38 -5 12 -45 17 -56 6z"/>
    <path d="M3662 3138 c-15 -15 3 -48 27 -48 25 0 34 26 15 45 -18 18 -26 19 -42 3z"/>
    <path d="M3212 3112 c-31 -26 -41 -55 -23 -66 15 -10 81 48 78 68 -3 29 -18 28 -55 -2z"/>
    <path d="M3364 3079 c-8 -13 44 -58 67 -59 14 0 29 19 29 36 0 7 -59 34 -74 34 -8 0 -18 -5 -22 -11z"/>
    <path d="M3563 3065 c-21 -9 -33 -21 -33 -33 0 -33 27 -33 55 -1 40 49 34 59 -22 34z"/>
    <path d="M2236 1801 c-17 -18 -16 -28 13 -203 37 -224 55 -365 81 -618 16 -157 23 -197 37 -207 36 -27 83 -4 83 42 0 45 -50 470 -80 675 -37 258 -44 296 -60 315 -17 21 -53 19 -74 -4z"/>
    <path d="M5338 1523 c-11 -13 -17 -53 -22 -143 -9 -171 -34 -490 -46 -573 -10 -80 -6 -95 27 -108 31 -11 61 4 68 34 14 65 53 551 56 706 2 62 -1 76 -16 88 -25 18 -49 16 -67 -4z"/>
  </g>
</svg>